<?xml version="1.0" standalone="no"?>
<!DOCTYPE svg PUBLIC "-//W3C//DTD SVG 20010904//EN"
 "http://www.w3.org/TR/2001/REC-SVG-20010904/DTD/svg10.dtd">
<svg version="1.0" xmlns="http://www.w3.org/2000/svg"
 width="500.000000pt" height="500.000000pt" viewBox="0 0 500.000000 500.000000"
 preserveAspectRatio="xMidYMid meet">

<g transform="translate(0.000000,500.000000) scale(0.100000,-0.100000)"
fill="#000000" stroke="none">
<path d="M1500 3615 c0 -288 0 -295 20 -295 20 0 20 7 20 275 l0 275 275 0
c268 0 275 0 275 20 0 20 -7 20 -295 20 l-295 0 0 -295z"/>
<path d="M2910 3890 c0 -20 7 -20 275 -20 l275 0 0 -275 c0 -268 0 -275 20
-275 20 0 20 7 20 295 l0 295 -295 0 c-288 0 -295 0 -295 -20z"/>
<path d="M1692 3463 l3 -268 67 -3 67 -3 21 41 20 40 -50 0 -50 0 0 190 0 190
195 0 195 0 0 -50 0 -50 40 20 40 20 0 70 0 70 -275 0 -275 0 2 -267z"/>
<path d="M2470 3695 c0 -34 1 -35 40 -35 39 0 40 1 40 35 0 34 -1 35 -40 35
-39 0 -40 -1 -40 -35z"/>
<path d="M2630 3675 c0 -37 4 -55 13 -55 6 0 22 -3 35 -6 21 -6 22 -4 22 55
l0 61 -35 0 -35 0 0 -55z"/>
<path d="M2780 3655 l0 -75 40 -20 40 -20 0 55 0 55 190 0 190 0 0 -190 0
-190 -55 0 -55 0 20 -40 20 -40 75 0 75 0 0 270 0 270 -270 0 -270 0 0 -75z"/>
<path d="M1850 3465 l0 -115 34 0 c30 0 46 11 115 80 71 70 81 84 81 115 l0
35 -115 0 -115 0 0 -115z"/>
<path d="M2360 3565 c-36 -8 -108 -36 -160 -62 -158 -79 -278 -216 -336 -381
-49 -141 -53 -262 -13 -412 32 -120 82 -204 179 -300 119 -120 231 -176 401
-201 255 -37 533 99 673 329 115 189 128 450 32 648 -118 244 -359 396 -628
393 -46 0 -112 -7 -148 -14z m293 -51 c236 -53 433 -251 483 -482 78 -369
-165 -716 -540 -772 -94 -14 -173 -7 -276 26 -187 59 -333 199 -406 389 -35
91 -45 263 -20 367 78 336 420 548 759 472z"/>
<path d="M2187 3274 c-4 -4 -7 -87 -7 -185 0 -174 0 -178 28 -230 22 -42 39
-61 80 -84 l53 -30 -3 -74 c-3 -66 -6 -76 -31 -97 -19 -16 -40 -24 -67 -24
-44 0 -58 -13 -39 -37 17 -20 92 -12 128 14 44 33 61 79 61 170 l0 82 -52 25
c-33 16 -62 39 -78 62 -24 36 -25 46 -28 201 l-3 163 170 0 171 0 0 -149 c0
-82 -5 -162 -11 -178 -15 -41 -58 -83 -106 -104 l-43 -18 0 -83 c0 -92 16
-138 61 -171 36 -26 111 -34 128 -14 19 24 5 37 -40 37 -31 0 -47 7 -70 29
-26 27 -29 35 -29 99 0 67 1 70 29 82 43 17 98 77 116 124 12 33 15 76 13 216
l-3 175 -211 3 c-115 1 -213 -1 -217 -4z"/>
<path d="M2657 3273 c-4 -3 -7 -62 -7 -130 0 -123 0 -124 23 -121 21 3 22 7
25 117 2 75 -1 118 -9 127 -13 15 -22 18 -32 7z"/>
<path d="M2725 3258 c-3 -13 -5 -70 -3 -128 3 -101 4 -105 26 -108 l23 -3 -3
128 c-3 111 -5 128 -20 131 -11 2 -19 -5 -23 -20z"/>
<path d="M2805 3268 c-2 -7 -5 -68 -7 -134 -3 -137 -13 -158 -74 -170 l-34 -6
0 -223 c0 -180 3 -224 14 -228 31 -12 36 16 36 213 l0 195 30 13 c16 8 40 28
52 45 21 29 23 43 23 167 0 120 -2 135 -18 138 -9 2 -19 -2 -22 -10z"/>
<path d="M2940 3536 c0 -41 5 -48 71 -115 67 -66 74 -71 115 -71 l44 0 0 115
0 115 -115 0 -115 0 0 -44z"/>
<path d="M1692 3073 c3 -37 4 -38 46 -41 38 -3 43 0 52 23 19 50 14 55 -46 55
l-55 0 3 -37z"/>
<path d="M3220 2960 c0 -47 4 -80 10 -80 6 0 10 -32 10 -75 0 -61 -3 -75 -16
-75 -12 0 -44 -54 -44 -75 0 -3 16 -5 35 -5 l35 0 0 -121 0 -121 -31 6 c-17 3
-35 6 -40 6 -5 0 -9 16 -9 35 0 34 -1 35 -40 35 -39 0 -40 -1 -40 -34 0 -31
-3 -34 -34 -40 -34 -7 -46 -21 -46 -57 0 -16 7 -19 40 -19 39 0 40 1 40 35 0
34 1 35 40 35 39 0 40 -1 40 -35 0 -34 1 -35 40 -35 l40 0 0 -40 c0 -39 1 -40
35 -40 34 0 35 1 35 40 0 39 -1 40 -35 40 -33 0 -35 2 -35 35 0 33 2 35 35 35
l35 0 0 120 0 120 -35 0 c-33 0 -35 2 -35 35 0 33 2 35 35 35 l35 0 0 160 0
160 -50 0 -50 0 0 -80z"/>
<path d="M1697 2953 c-4 -3 -7 -21 -7 -40 0 -32 1 -33 39 -33 40 0 40 0 44
-42 2 -24 4 -6 5 40 l2 82 -38 0 c-21 0 -42 -3 -45 -7z"/>
<path d="M1697 2643 c-4 -3 -7 -125 -7 -270 l0 -263 275 0 275 0 0 60 c0 59 0
60 -40 80 l-40 20 0 -45 0 -45 -195 0 -195 0 0 195 0 195 45 0 45 0 -20 40
c-20 40 -21 40 -79 40 -32 0 -61 -3 -64 -7z"/>
<path d="M3152 2595 c-10 -21 -9 -25 3 -25 9 0 15 10 15 25 0 14 -2 25 -3 25
-2 0 -9 -11 -15 -25z"/>
<path d="M1500 2211 l0 -301 295 0 c288 0 295 0 295 20 0 20 -7 20 -275 20
l-275 0 -2 277 c-3 255 -4 278 -20 281 -17 3 -18 -16 -18 -297z"/>
<path d="M3467 2503 c-4 -3 -7 -129 -7 -280 l0 -273 -275 0 c-268 0 -275 0
-275 -20 0 -20 7 -20 295 -20 l295 0 0 300 c0 243 -3 300 -13 300 -8 0 -17 -3
-20 -7z"/>
<path d="M1850 2375 l0 -115 115 0 115 0 0 25 c0 35 -169 205 -205 205 l-25 0
0 -115z"/>
<path d="M3097 2334 c-4 -4 -7 -22 -7 -41 0 -32 1 -33 41 -33 l40 0 -3 38 c-3
33 -6 37 -33 40 -17 2 -34 0 -38 -4z"/>
<path d="M2840 2270 c-13 -8 -12 -10 3 -10 9 0 17 5 17 10 0 12 -1 12 -20 0z"/>
<path d="M2937 2253 c-4 -3 -7 -21 -7 -40 l0 -33 -75 0 -75 0 0 31 c0 26 -3
30 -17 24 -92 -38 -286 -57 -390 -37 l-53 9 0 -53 0 -54 75 0 75 0 0 40 0 40
40 0 40 0 0 -41 0 -40 38 3 c35 3 37 5 40 41 3 35 5 37 37 37 32 0 34 -2 37
-37 l3 -38 230 0 230 0 3 38 3 37 -80 0 -81 0 0 40 c0 39 -1 40 -33 40 -19 0
-37 -3 -40 -7z"/>
<path d="M3250 2140 c0 -39 1 -40 35 -40 34 0 35 1 35 40 0 39 -1 40 -35 40
-34 0 -35 -1 -35 -40z"/>
<path d="M1240 1650 l0 -180 35 0 35 0 0 75 0 75 124 0 c123 0 125 0 145 26
32 40 29 126 -4 159 -24 24 -28 25 -180 25 l-155 0 0 -180z m290 75 l0 -35
-110 0 -110 0 0 35 0 35 110 0 110 0 0 -35z"/>
<path d="M1670 1795 l0 -35 70 0 70 0 0 -110 0 -110 -70 0 -70 0 0 -35 0 -35
180 0 180 0 0 35 0 34 -72 3 -73 3 -3 108 -3 107 76 0 75 0 0 35 0 35 -180 0
-180 0 0 -35z"/>
<path d="M2100 1650 l0 -180 158 0 c211 0 202 -8 202 180 0 189 10 180 -200
180 l-160 0 0 -180z m290 0 l0 -111 -107 3 -108 3 -3 108 -3 107 111 0 110 0
0 -110z"/>
<path d="M2560 1810 c-18 -18 -20 -33 -20 -159 0 -139 0 -140 26 -160 24 -19
40 -21 180 -21 l154 0 0 35 0 35 -145 0 -145 0 0 40 0 40 145 0 145 0 0 35 0
35 -145 0 -145 0 0 35 0 35 145 0 145 0 0 35 0 35 -160 0 c-147 0 -162 -2
-180 -20z"/>
<path d="M2990 1808 c-18 -20 -20 -35 -20 -158 0 -130 1 -138 23 -158 17 -16
36 -22 69 -22 37 0 47 -4 51 -20 4 -15 14 -20 37 -20 23 0 33 5 37 20 4 16 14
20 50 20 33 0 50 6 68 25 24 23 25 29 25 158 0 181 4 177 -183 177 -127 0
-138 -1 -157 -22z m270 -158 l0 -110 -34 0 c-33 0 -35 2 -38 38 -3 35 -5 37
-38 37 -33 0 -35 -2 -38 -37 -3 -36 -5 -38 -38 -38 l-34 0 0 110 0 110 110 0
110 0 0 -110z"/>
<path d="M3400 1650 l0 -180 35 0 35 0 0 70 c0 70 0 70 28 70 21 0 44 -17 97
-70 67 -67 71 -70 117 -70 l48 0 0 35 c0 33 -2 35 -33 35 -24 0 -42 9 -66 34
l-32 33 50 7 c66 9 81 30 81 113 0 100 -5 103 -200 103 l-160 0 0 -180z m290
75 l0 -35 -110 0 -110 0 0 35 0 35 110 0 110 0 0 -35z"/>
</g>
</svg>
